<svg width="20" height="20" viewBox="0 0 20 20" fill="none" xmlns="http://www.w3.org/2000/svg">
<path d="M7.55566 16.725C7.96988 16.725 8.30566 16.3892 8.30566 15.975C8.30566 15.5608 7.96988 15.225 7.55566 15.225V16.725ZM3.55615 13.3085L2.80615 13.3085L3.55615 13.3085ZM4.30566 1.99997C4.30565 1.58575 3.96985 1.24998 3.55563 1.25C3.14142 1.25002 2.80565 1.58582 2.80566 2.00003L4.30566 1.99997ZM7.55566 6.84739C7.96988 6.84739 8.30566 6.5116 8.30566 6.09739C8.30566 5.68318 7.96988 5.34739 7.55566 5.34739V6.84739ZM15.5557 8.22222L15.5557 7.47222L15.5557 7.47222L15.5557 8.22222ZM11.5557 8.2222L11.5557 8.9722L11.5557 8.9722L11.5557 8.2222ZM16.4447 2L17.1947 2.00002C17.1947 1.8011 17.1157 1.61033 16.975 1.46968C16.8344 1.32902 16.6436 1.25 16.4447 1.25V2ZM16.4446 7.33335L17.1946 7.33337L17.1946 7.33337L16.4446 7.33335ZM10.6668 7.33331L9.91678 7.3333L9.91678 7.33331L10.6668 7.33331ZM10.6668 3.77778L10.1685 3.21722C10.0084 3.35955 9.91681 3.56355 9.9168 3.77777L10.6668 3.77778ZM12.6668 2V1.25C12.4831 1.25 12.3058 1.31741 12.1685 1.43945L12.6668 2ZM15.5557 18L15.5557 17.25L15.5557 17.25L15.5557 18ZM11.5557 18L11.5557 18.75L11.5557 18.75L11.5557 18ZM16.4447 11.7778L17.1947 11.7778C17.1947 11.5789 17.1157 11.3881 16.975 11.2475C16.8344 11.1068 16.6436 11.0278 16.4447 11.0278V11.7778ZM16.4446 17.1111L17.1946 17.1111L17.1946 17.1111L16.4446 17.1111ZM10.6668 17.1111L9.91678 17.1111L9.91678 17.1111L10.6668 17.1111ZM10.6668 13.5556L10.1685 12.995C10.0084 13.1373 9.91681 13.3413 9.9168 13.5555L10.6668 13.5556ZM12.6668 11.7778V11.0278C12.4831 11.0278 12.3058 11.0952 12.1685 11.2172L12.6668 11.7778ZM7.55566 15.225H6.22281V16.725H7.55566V15.225ZM4.30615 13.3084L4.30584 6.09736L2.80584 6.09742L2.80615 13.3085L4.30615 13.3084ZM4.30584 6.09736L4.30566 1.99997L2.80566 2.00003L2.80584 6.09742L4.30584 6.09736ZM7.55566 5.34739H3.55584V6.84739H7.55566V5.34739ZM6.22281 15.225C5.1643 15.225 4.30619 14.367 4.30615 13.3084L2.80615 13.3085C2.80623 15.1954 4.3359 16.725 6.22281 16.725V15.225ZM15.5557 7.47222L11.5557 7.4722L11.5557 8.9722L15.5557 8.97222L15.5557 7.47222ZM15.6947 1.99998L15.6946 7.33334L17.1946 7.33337L17.1947 2.00002L15.6947 1.99998ZM15.5557 8.97222C16.4608 8.97222 17.1946 8.23849 17.1946 7.33337L15.6946 7.33334C15.6946 7.41004 15.6324 7.47222 15.5557 7.47222L15.5557 8.97222ZM9.91678 7.33331C9.91677 8.23844 10.6505 8.9722 11.5557 8.9722L11.5557 7.4722C11.479 7.4722 11.4168 7.41002 11.4168 7.33332L9.91678 7.33331ZM11.4168 7.33332L11.4168 3.77778L9.9168 3.77777L9.91678 7.3333L11.4168 7.33332ZM12.6668 2.75H16.4447V1.25H12.6668V2.75ZM12.1685 1.43945L10.1685 3.21722L11.1651 4.33833L13.1651 2.56055L12.1685 1.43945ZM15.5557 17.25L11.5557 17.25L11.5557 18.75L15.5557 18.75L15.5557 17.25ZM15.6947 11.7778L15.6946 17.1111L17.1946 17.1111L17.1947 11.7778L15.6947 11.7778ZM15.5557 18.75C16.4608 18.75 17.1946 18.0163 17.1946 17.1111L15.6946 17.1111C15.6946 17.1878 15.6324 17.25 15.5557 17.25L15.5557 18.75ZM9.91678 17.1111C9.91677 18.0162 10.6505 18.75 11.5557 18.75L11.5557 17.25C11.479 17.25 11.4168 17.1878 11.4168 17.1111L9.91678 17.1111ZM11.4168 17.1111L11.4168 13.5556L9.9168 13.5555L9.91678 17.1111L11.4168 17.1111ZM12.6668 12.5278H16.4447V11.0278H12.6668V12.5278ZM12.1685 11.2172L10.1685 12.995L11.1651 14.1161L13.1651 12.3383L12.1685 11.2172Z" fill="#CDCDCD"/>
</svg>
